<svg width="277" height="201" viewBox="0 0 277 201" fill="none" xmlns="http://www.w3.org/2000/svg">
<g clip-path="url(#clip0_2101_1064)">
<path d="M240.473 1.86736L243.74 7.01207C224.748 19.059 212.513 33.1738 205.212 47.4625C234.399 54.3043 262.022 75.9232 268.934 97.5298C274.804 115.881 264.91 131.268 241.788 139.745C224.593 146.046 207.097 137.194 197.217 117.185C189.456 101.467 186.419 76.8695 196.407 52.0498C188.017 50.8754 179.701 51.1314 171.997 53.2437C147.234 60.028 120.569 77.5702 98.8423 101.373C98.6917 101.538 98.5408 101.704 98.3908 101.869C110.182 101.687 121.989 103.888 132.971 109.757C151.173 119.485 156.605 136.187 147.501 154.435C134.594 180.306 97.0474 201.818 71.6237 190.042C61.9668 185.568 57.4275 176.445 58.4956 163.66C59.8073 147.965 69.3904 128.327 84.0139 109.528C47.7743 115.942 14.5066 141.084 14.0318 141.448L10.3233 136.611C12.4478 134.983 49.8993 106.699 89.8345 102.403C110.99 77.7076 140.392 55.5834 170.386 47.3662C179.47 44.8795 189.244 44.6832 198.988 46.2348C206.632 30.529 219.758 15.008 240.473 1.86736ZM233.174 135.507C235.341 135.309 237.519 134.819 239.689 134.023C259.901 126.614 268.005 114.636 263.127 99.3858C256.787 79.568 230.054 59.2216 202.56 53.1608C192.707 76.5608 195.412 99.7597 202.684 114.488C209.795 128.889 221.286 136.596 233.174 135.507ZM91.17 187.093C111.03 185.274 133.241 169.362 142.045 151.717C146.487 142.812 150.842 126.219 130.096 115.131C118.434 108.899 105.557 107.27 92.7534 108.371C76.462 128.027 65.8502 148.857 64.5709 164.167C63.7231 174.318 66.9586 181.164 74.188 184.513C79.3389 186.899 85.1467 187.644 91.17 187.093Z" fill="#149A77"/>
</g>
<defs>
<clipPath id="clip0_2101_1064">
<rect width="261.951" height="176.92" fill="white" transform="translate(276.994 176.183) rotate(174.767)"/>
</clipPath>
</defs>
</svg>
