<svg width="143" height="98" viewBox="0 0 143 98" fill="none" xmlns="http://www.w3.org/2000/svg">
<path d="M11.1754 98L9.65558 94.9971C20.5798 89.3112 27.934 82.1433 32.6143 74.6303C17.0881 69.3818 3.14769 56.061 0.465956 43.7933C-1.8118 33.3739 4.33306 25.3862 17.325 21.8783C26.9865 19.2709 36.0569 25.0378 40.432 36.574C43.8687 45.6367 44.2948 59.3583 37.6296 72.5447C42.1318 73.6163 46.6655 73.8952 50.9587 73.1193C64.7586 70.6279 80.1275 62.2984 93.1241 50.2658C93.2141 50.1827 93.3045 50.0986 93.3942 50.0152C86.975 49.5201 80.6661 47.7094 74.988 43.917C65.5774 37.6316 63.456 28.144 69.3138 18.5378C77.6184 4.91924 99.1006 -5.0505 112.335 2.72985C117.362 5.68567 119.376 10.947 118.159 17.9458C116.664 26.5371 110.477 36.8856 101.591 46.5165C121.611 44.8093 140.949 32.6211 141.225 32.4444L143 35.2997C141.764 36.0905 119.996 49.8007 98.0723 50.1527C85.3419 62.7065 68.2566 73.4252 51.5418 76.4427C46.4796 77.3555 41.1568 76.9701 35.9367 75.622C30.9993 83.8994 23.0912 91.7979 11.1754 98ZM21.797 24.6509C20.609 24.6509 19.4003 24.8111 18.1812 25.1404C6.82468 28.2066 1.8226 34.4041 3.71521 43.0629C6.17495 54.3149 19.6948 66.8888 34.3398 71.621C40.8614 59.211 40.5457 46.2775 37.3255 37.7858C34.1767 29.4826 28.3139 24.6509 21.797 24.6509ZM101.563 3.3693C90.6757 3.3693 77.8089 11.0244 72.1444 20.3131C69.2863 25.0005 66.0926 33.9336 76.8186 41.0979C82.848 45.125 89.7673 46.674 96.7826 46.7136C106.618 36.6937 113.424 25.7399 114.881 17.3593C115.848 11.8024 114.429 7.8629 110.666 5.65009C107.985 4.07375 104.865 3.3693 101.563 3.3693Z" fill="#F8F9E9"/>
</svg>
