<svg width="313" height="181" viewBox="0 0 313 181" fill="none" xmlns="http://www.w3.org/2000/svg">
<g clip-path="url(#clip0_2101_1017)">
<path d="M296.467 161.615H271.835C270.106 161.615 268.671 160.191 268.671 158.474C268.671 146.793 258.718 137.289 246.444 137.289C234.17 137.289 224.216 146.793 224.216 158.474C224.216 160.191 222.782 161.615 221.053 161.615H127.292C125.563 161.615 124.129 160.191 124.129 158.474C124.129 146.793 114.175 137.289 101.901 137.289C89.6276 137.289 79.6736 146.793 79.6736 158.474C79.6736 160.191 78.2396 161.615 76.5103 161.615H57.1508C48.0404 161.615 40.6172 154.455 40.6172 145.663V80.8073H46.9438V145.663C46.9438 150.98 51.5412 155.334 57.1508 155.334H73.5579C75.1606 141.643 87.2656 131.008 101.901 131.008C116.537 131.008 128.642 141.685 130.245 155.334H218.058C219.661 141.643 231.766 131.008 246.402 131.008C261.037 131.008 273.142 141.685 274.745 155.334H296.424C302.034 155.334 306.631 150.98 306.631 145.663V93.5355C306.631 89.1393 303.51 85.2873 299.039 84.1987L270.569 77.081C264.454 75.5318 259.856 70.8843 258.549 64.9389L247.456 14.068C246.486 9.58802 242.268 6.3641 237.46 6.3641H41.5873V0H237.502C245.263 0 252.096 5.31737 253.698 12.6445L264.791 63.5154C265.593 67.1161 268.418 69.9632 272.172 70.9262L300.642 78.044C307.939 79.8862 313 86.2084 313 93.4936V145.621C313 154.413 305.577 161.573 296.467 161.573V161.615Z" fill="#009875"/>
<path d="M121.261 160.986C121.261 172.04 112.657 180.958 102.028 180.958C91.3992 180.958 82.7949 171.998 82.7949 160.986C82.7949 149.975 91.3992 143.736 102.028 143.736C112.657 143.736 121.261 149.975 121.261 160.986Z" fill="#E30613"/>
<path d="M265.719 160.986C265.719 172.04 257.115 180.958 246.486 180.958C235.857 180.958 227.253 171.998 227.253 160.986C227.253 149.975 235.857 143.736 246.486 143.736C257.115 143.736 265.719 149.975 265.719 160.986Z" fill="#E30613"/>
<path d="M117.76 61.6309H23.7881V67.9112H117.76V61.6309Z" fill="#009875"/>
<path d="M116.452 17.7529H22.4805V24.0333H116.452V17.7529Z" fill="#009875"/>
<path d="M93.9717 39.6914H0V45.9718H93.9717V39.6914Z" fill="#009875"/>
</g>
<defs>
<clipPath id="clip0_2101_1017">
<rect width="313" height="181" fill="white"/>
</clipPath>
</defs>
</svg>
