<svg width="240" height="270" viewBox="0 0 240 270" fill="none" xmlns="http://www.w3.org/2000/svg">
<g clip-path="url(#clip0_2101_1081)">
<path d="M6.36967 216.909C-1.09635 209.348 10.2745 179.036 24.0342 158.769C25.6738 156.36 36.665 174.51 38.0305 171.808C39.3961 169.105 25.5458 156.268 27.0779 153.478C31.6286 145.199 40.4859 130.094 46.0734 122.12C47.5458 120.025 60.9784 142.187 62.5044 140.142C63.8868 138.279 49.6601 118.998 51.0961 117.187C56.6095 110.233 69.694 98.7756 75.6679 93.026C79.0264 89.7978 88.6802 123.07 92.2048 120.258C95.7294 117.447 80.1023 90.481 83.7634 88.1814C109.022 72.3173 143.329 64.5247 163.077 94.5313C202.616 154.628 24.8654 235.627 6.36967 216.909Z" fill="#E30613"/>
<path d="M165.072 33.0158C129.612 31.8277 169.322 87.6322 169.322 87.6322M169.322 87.6322C169.322 87.6322 214.099 137.804 221.877 102.982C229.37 69.4098 185.909 79.8569 169.322 87.6322ZM169.322 87.6322C178.341 76.1407 192.319 48.415 179.486 37.5117" stroke="#009875" stroke-width="4" stroke-linejoin="round"/>
</g>
<defs>
<clipPath id="clip0_2101_1081">
<rect width="180.821" height="226.027" fill="white" transform="translate(67.3032) rotate(17.3235)"/>
</clipPath>
</defs>
</svg>
