<svg width="609" height="543" viewBox="0 0 609 543" fill="none" xmlns="http://www.w3.org/2000/svg">
<g clip-path="url(#clip0_32_447)">
<path d="M591.182 566.155C522.307 570.712 455.219 546.587 396.531 496.018C386.696 487.541 377.15 478.366 367.944 468.568C272.757 513.052 161.571 551.881 37.9901 579.604L34.0427 561.964C147.815 536.447 257.508 499.5 355.194 454.344C320.866 414.23 292.038 365.35 271.82 312.291C226.317 192.859 234.839 84.5729 293.028 42.8353C316.59 25.9347 341.125 20.9187 365.952 27.9312C421.294 43.5606 462.138 115.455 477.624 146.8C505.867 108.162 593.964 2.07857 677.676 52.7223C715.182 75.4114 731.413 109.515 724.615 151.344C709.73 242.918 584.503 363.916 384.785 460.561C439.96 517.908 512.587 556.698 599.633 547.28L601.568 565.251C598.103 565.626 594.638 565.926 591.182 566.155ZM340.44 43.0538C328.085 43.8713 315.882 48.6745 303.538 57.5292C252.919 93.8377 246.811 195.952 288.682 305.851C306.987 353.896 335.082 404.204 371.905 446.484C421.926 422.539 468.572 396.436 510.743 368.616C623.154 294.456 696.448 212.148 706.803 148.436C712.399 114.012 699.461 87.0134 668.347 68.191C583.958 17.1374 484.622 168.229 483.628 169.761C481.809 172.563 478.596 174.13 475.269 173.839C471.945 173.546 469.05 171.438 467.749 168.358C467.303 167.303 422.442 62.6411 361.036 45.3205C354.094 43.3617 347.244 42.6036 340.44 43.0538Z" fill="#004339"/>
</g>
<defs>
<clipPath id="clip0_32_447">
<rect width="719.098" height="556.577" fill="white" transform="translate(0 47.4775) rotate(-3.78565)"/>
</clipPath>
</defs>
</svg>
