<svg width="175" height="136" viewBox="0 0 175 136" fill="none" xmlns="http://www.w3.org/2000/svg">
<g clip-path="url(#clip0_129_250)">
<path d="M135.223 136C118.424 136 102.521 129.036 89.0825 115.759C86.8303 113.534 84.6597 111.143 82.5818 108.605C58.7528 117.916 31.1295 125.589 0.675108 130.355L0 125.99C28.0372 121.604 55.2677 114.365 79.7142 104.931C72.023 94.5971 65.808 82.2142 61.7511 68.9514C52.6206 39.0978 56.4299 12.8332 71.2304 3.59557C77.2236 -0.144962 83.262 -0.972138 89.178 1.13815C102.365 5.8417 111.128 24.0297 114.385 31.9221C121.864 22.957 144.962 -1.48664 164.476 12.2117C173.218 18.3488 176.612 26.9257 174.289 37.0147C169.203 59.1018 136.85 86.583 86.7999 106.925C99.2766 121.797 116.289 132.426 137.578 131.535L137.759 135.947C136.912 135.983 136.065 136 135.223 136ZM82.7401 4.41373C79.7267 4.41373 76.6863 5.38797 73.5464 7.34775C60.6713 15.3838 57.5473 40.1824 65.9492 67.6533C69.6221 79.6628 75.636 92.3821 83.8985 103.285C96.4298 98.2535 108.176 92.6417 118.864 86.539C147.352 70.2711 166.472 51.3854 170.01 36.0184C171.922 27.7154 169.214 20.9239 161.962 15.8327C142.29 2.02353 115.74 37.2596 115.474 37.6172C114.988 38.271 114.182 38.6014 113.379 38.4767C112.576 38.3516 111.907 37.7909 111.641 37.0189C111.55 36.7546 102.338 10.5124 87.7049 5.29867C86.0507 4.7091 84.3994 4.41373 82.7401 4.41373Z" fill="#E30613"/>
</g>
<defs>
<clipPath id="clip0_129_250">
<rect width="175" height="136" fill="white"/>
</clipPath>
</defs>
</svg>
