<svg width="307" height="300" viewBox="0 0 307 300" fill="none" xmlns="http://www.w3.org/2000/svg">
<g clip-path="url(#clip0_2101_1149)">
<path d="M156.946 150.188C138.429 141.836 120.486 159.909 91.3188 165.516C51.5017 173.169 45.3767 200.569 54.1527 215.735C64.308 233.285 92.2676 220.947 110.932 231.02C127.209 238.369 137.102 263.659 156.54 268.431C176.232 273.264 189.685 253.911 175.11 212.582C165.176 184.411 178.043 161.76 156.946 150.188Z" fill="#E30613"/>
<path d="M149.234 269.844C140.564 265.668 133.896 258.053 127.408 250.642C121.462 243.853 115.825 237.406 109.356 234.511C101.9 230.486 92.787 230.324 83.9268 230.132C71.0482 229.852 57.7272 229.559 50.8365 217.653C45.8425 209.021 45.4835 198.119 49.8781 188.49C55.9776 175.124 70.4394 165.629 90.5948 161.755C101.642 159.63 111.23 155.566 119.689 151.981C133.669 146.052 145.743 140.934 158.521 146.698L158.656 146.759L158.788 146.831C173.421 154.857 173.865 167.97 174.335 181.856C174.635 190.679 174.973 200.679 178.723 211.309C187.559 236.363 187.244 255.88 177.837 266.26C172.413 272.245 164.527 274.336 155.626 272.153C153.372 271.599 151.248 270.814 149.234 269.844ZM113.39 227.946C120.871 231.549 127.121 238.686 133.171 245.595C140.385 253.835 147.841 262.357 157.453 264.711C161.726 265.759 167.745 265.987 172.16 261.114C179.373 253.155 179.126 235.488 171.496 213.856C167.358 202.115 166.996 191.49 166.678 182.114C166.219 168.537 165.914 159.55 155.236 153.622C145.553 149.336 135.452 153.618 122.679 159.033C113.871 162.769 103.886 167.002 92.0418 169.278C74.3891 172.672 61.8914 180.623 56.8489 191.671C53.4826 199.048 53.7139 207.327 57.4685 213.817C62.2076 222 72.3508 222.218 84.0939 222.472C93.8602 222.683 104.009 222.92 112.752 227.648C112.967 227.745 113.18 227.844 113.39 227.946Z" fill="#E30613"/>
<path d="M76.4964 147.523C72.9466 145.816 69.5356 143.168 66.4094 139.646C59.9366 132.355 55.4043 122.088 53.6491 110.735C49.9568 86.8472 59.9316 65.4004 75.8836 62.929C83.8509 61.6942 91.9745 65.2207 98.7581 72.8582C105.231 80.1487 109.762 90.4182 111.518 101.771C115.211 125.657 105.237 147.102 89.2838 149.575C84.9874 150.24 80.647 149.522 76.4964 147.523ZM86.1925 70.1737C83.0731 68.6713 79.8775 68.1245 76.7659 68.6064C63.9408 70.5948 56.1201 89.0993 59.3287 109.858C60.918 120.132 64.9581 129.357 70.7053 135.831C76.1428 141.952 82.4289 144.825 88.4027 143.896C101.227 141.91 109.048 123.405 105.838 102.648C104.251 92.3749 100.209 83.1491 94.4599 76.6741C91.8557 73.7403 89.0574 71.5536 86.1925 70.1737Z" fill="#149A77"/>
<path d="M200.233 211.034C195.587 208.796 192.043 205.456 189.893 201.186C182.633 186.766 194.288 166.184 215.872 155.304C226.131 150.134 237.118 147.854 246.814 148.884C256.97 149.964 264.56 154.521 268.188 161.726C275.45 176.147 263.794 196.728 242.209 207.606C231.951 212.776 220.963 215.056 211.268 214.026C207.133 213.587 203.423 212.571 200.233 211.034ZM218.458 160.436C199.702 169.888 189.191 187.009 195.025 198.6C197.741 203.996 203.723 207.444 211.875 208.312C220.485 209.226 230.34 207.154 239.624 202.474C258.381 193.022 268.893 175.902 263.056 164.312C260.335 158.909 254.352 155.463 246.207 154.598C237.597 153.684 227.741 155.757 218.458 160.436Z" fill="#149A77"/>
<path d="M135.278 120.913C128.7 117.745 123.78 111.227 121.254 102.221C118.487 92.3489 118.923 80.5504 122.484 69.001C125.678 58.6449 131.191 49.3431 138.007 42.8078L141.984 46.9572C135.86 52.8253 130.886 61.2568 127.976 70.6949C124.736 81.203 124.314 91.8475 126.787 100.669C129.136 109.044 133.807 114.695 139.954 116.593C153.11 120.65 169.148 106.659 175.702 85.4059C178.941 74.8995 179.363 64.2547 176.89 55.4317C174.54 47.056 169.874 41.391 163.723 39.5083L165.417 34.0168C173.5 36.5001 179.529 43.5605 182.424 53.8799C185.191 63.752 184.754 75.5504 181.193 87.0998C173.706 111.379 154.447 127.073 138.26 122.084C137.233 121.768 136.238 121.376 135.278 120.913Z" fill="#149A77"/>
<path d="M187.422 147.752C186.121 147.125 184.887 146.369 183.728 145.487C170.26 135.213 171.839 110.417 187.244 90.2137C194.574 80.604 203.919 73.3912 213.562 69.9056C223.644 66.2637 232.897 67.0872 239.609 72.2009C253.077 82.4726 251.499 107.268 236.094 127.472C228.764 137.082 219.419 144.295 209.775 147.78C201.435 150.795 193.661 150.757 187.422 147.752ZM233.449 75.1323C228.598 72.7962 222.359 72.8366 215.514 75.3095C206.899 78.4246 198.48 84.9543 191.815 93.6984C178.329 111.382 176.265 132.566 187.212 140.916C192.326 144.811 199.641 145.332 207.823 142.376C216.438 139.261 224.857 132.731 231.522 123.987C245.009 106.302 247.072 85.1213 236.124 76.7716C235.289 76.1346 234.394 75.5876 233.449 75.1323Z" fill="#149A77"/>
</g>
<defs>
<clipPath id="clip0_2101_1149">
<rect width="234.559" height="219.732" fill="white" transform="translate(95.3496) rotate(25.7176)"/>
</clipPath>
</defs>
</svg>
