<svg width="502" height="563" viewBox="0 0 502 563" fill="none" xmlns="http://www.w3.org/2000/svg">
<g clip-path="url(#clip0_32_449)">
<path d="M610.522 547.056C570.968 559.741 531.334 566.051 492.273 566.052C493.117 592.266 493.216 619.386 492.504 647.41L473.361 646.937C474.062 619.333 473.951 592.174 473.039 565.539C417.622 562.579 363.572 546.806 312.745 518.394C235.376 475.149 168.951 403.472 130.5 321.744C77.6527 209.417 89.0191 107.663 159.476 62.5177C202.808 34.7499 250.075 33.7935 296.167 59.7472C388.657 111.827 478.95 280.098 491.499 546.491C528.019 546.769 565.946 541.246 604.683 528.824L610.522 547.056ZM156.144 88.9914C106.944 132.908 103.158 218.639 147.827 313.585C204.79 434.658 326.079 536.442 472.212 545.8C467.098 442.67 449.804 348.136 421.182 268.366C387.475 174.425 339.739 106.263 286.765 76.4342C247.231 54.1737 206.788 54.9373 169.803 78.6384C164.916 81.7679 160.363 85.2256 156.144 88.9914Z" fill="#004339"/>
<path d="M253.795 247.673L173.737 207.474L178.898 197.205L246.127 230.963L268.937 139.577L280.087 142.354L253.795 247.673Z" fill="#004339"/>
<path d="M343.605 411.073L255.756 364.989L261.099 354.817L335.06 393.612L354.055 287.595L365.367 289.616L343.605 411.073Z" fill="#004339"/>
<path d="M404.598 492.67C339.809 430.748 216.245 189.076 201.086 141.471L212.037 137.98C227.006 184.993 348.792 423.437 412.536 484.361L404.598 492.67Z" fill="#004339"/>
</g>
<defs>
<clipPath id="clip0_32_449">
<rect width="326.897" height="663.466" fill="white" transform="translate(0 202.687) rotate(-41.7527)"/>
</clipPath>
</defs>
</svg>
