<svg width="548" height="414" viewBox="0 0 548 414" fill="none" xmlns="http://www.w3.org/2000/svg">
<g clip-path="url(#clip0_32_454)">
<path d="M465.601 362.682C464.552 362.841 463.464 362.79 462.404 362.513L266.828 311.417C263.297 310.494 260.851 307.283 260.904 303.636C260.956 299.988 263.491 296.85 267.046 296.024L334.779 280.347L338.357 295.789L301.974 304.212L452.783 343.613L410.279 201.133L396.929 267.572C396.413 270.134 394.666 272.279 392.259 273.306C389.854 274.333 387.094 274.105 384.886 272.693C292.303 213.654 251.193 165.398 251.59 116.226C252.151 46.6522 339.025 -21.0084 469.293 -101.194C494.422 -116.662 497.349 -123.512 497.689 -124.851C496.646 -126.041 490.278 -130.948 455.342 -132.821C429.071 -134.23 394.656 -133.743 354.804 -133.18C292.338 -132.295 221.538 -131.293 157.784 -137.332C95.0033 -143.276 54.7252 -167.348 38.0693 -208.876C6.88225 -286.635 69.6629 -400.401 119.47 -457.896L131.462 -447.521C74.4618 -381.721 27.5205 -277.79 52.7927 -214.778C67.061 -179.202 102.889 -158.455 159.282 -153.114C222.178 -147.159 292.52 -148.153 354.581 -149.032C460.013 -150.524 506.882 -150.297 513.004 -129.252C516.423 -117.499 505.837 -105.071 477.608 -87.6948C328.769 3.92465 267.881 63.0382 267.452 116.352C267.117 157.819 303.065 200.208 383.673 253.029L401.001 166.791C401.716 163.221 404.779 160.603 408.413 160.432C412.052 160.264 415.336 162.596 416.377 166.086L472.01 352.579C472.829 355.32 472.103 358.293 470.113 360.353C468.883 361.624 467.291 362.424 465.601 362.682Z" fill="#004339"/>
</g>
<defs>
<clipPath id="clip0_32_454">
<rect width="460.61" height="863.304" fill="white" transform="translate(0 -439.72) rotate(-8.65069)"/>
</clipPath>
</defs>
</svg>
