<svg width="76" height="130" viewBox="0 0 76 130" fill="none" xmlns="http://www.w3.org/2000/svg">
<g clip-path="url(#clip0_129_247)">
<path d="M73 38.6833C73 38.9436 72.948 39.2055 72.8426 39.4525L53.399 85.0013C53.048 85.8236 52.1863 86.2983 51.3111 86.1509C50.4359 86.0038 49.7738 85.273 49.7053 84.3804L48.4135 67.3742L52.2579 67.0763L52.9524 76.2111L67.9452 41.0885L32.126 46.1396L47.6151 51.8292C48.2124 52.0488 48.6644 52.5516 48.8233 53.1734C48.9823 53.7947 48.8263 54.4556 48.406 54.939C30.8207 75.2151 17.7117 83.4053 5.90123 81.4945C-10.8096 78.7911 -23.9025 55.2244 -38.4196 20.6709C-41.2201 14.0054 -42.7604 13.0429 -43.07 12.911C-43.3942 13.1201 -44.8072 14.4835 -46.5359 22.8875C-47.836 29.2072 -48.9779 37.5722 -50.3006 47.2584C-52.3734 62.4412 -54.7227 79.6499 -58.5076 94.8897C-62.2341 109.897 -69.4967 118.778 -80.0929 121.285C-99.9338 125.98 -124.996 106.555 -137 92.3535L-134.066 89.8279C-120.328 106.08 -97.0516 121.3 -80.9735 117.496C-71.8961 115.348 -65.5958 107.424 -62.2481 93.9439C-58.5148 78.9093 -56.1802 61.812 -54.1209 46.7276C-50.6223 21.1016 -48.8529 9.74242 -43.568 9.03411C-40.6165 8.63852 -38.0149 11.6646 -34.8691 19.1525C-18.2817 58.632 -6.29357 75.5807 6.51193 77.6522C16.4717 79.2634 27.9809 72.1088 43.6327 54.5076L23.5278 47.1228C22.6955 46.8176 22.1781 45.9781 22.2699 45.0904C22.3626 44.2016 23.0435 43.4913 23.921 43.3674L70.805 36.7559C71.4942 36.6586 72.1826 36.9444 72.6052 37.5031C72.8658 37.8481 73 38.2637 73 38.6833Z" fill="#004339"/>
</g>
<defs>
<clipPath id="clip0_129_247">
<rect width="130" height="76" fill="white" transform="translate(0 130) rotate(-90)"/>
</clipPath>
</defs>
</svg>
