<svg width="272" height="246" viewBox="0 0 272 246" fill="none" xmlns="http://www.w3.org/2000/svg">
<path d="M2.17276 141.284C-6.16506 111.212 18.5069 75.0286 35.5449 91.697C52.583 108.365 64.099 116.704 84.4045 102.164C104.71 87.6246 133.413 93.0739 124.037 116.781C92.3213 196.979 11.7462 175.813 2.17276 141.284Z" fill="#004339"/>
<path d="M55.3343 82.8777C34.0752 67.8984 25.9987 33.9385 55.9534 28.3268C85.908 22.7151 146.142 -2.74781 152.669 28.8607C156.635 48.0676 133.662 84.8815 114.849 77.4382C86.5327 66.2345 89.9733 107.285 55.3343 82.8777Z" fill="#F5A9A1"/>
<path d="M59.7829 242.753C41.5546 226.192 69.348 172.099 103.261 166.511C126.747 162.64 137.099 216.01 160.236 206.646C190.65 194.337 210.108 235.823 185.172 240.824C160.236 245.826 143.695 220.935 117.173 229.656C92.8419 237.657 69.8613 251.91 59.7829 242.753Z" fill="#B9110F"/>
<path d="M165.151 26.8723C173.103 4.15139 201.178 -11.5359 213.652 13.81C226.126 39.156 263.775 86.5835 237.397 100.301C221.368 108.636 218.285 70.7653 199.652 72.0002C181.019 73.235 152.194 63.8931 165.151 26.8723Z" fill="#E30613"/>
<path d="M194.611 196.742C205.901 222.445 250.24 216.794 262.494 186.21C274.748 155.625 278.978 119.542 246.956 108.219C227.076 101.19 253.165 142.187 229.302 142.187C203.944 142.187 176.215 154.862 194.611 196.742Z" fill="#B0D8C1"/>
<path d="M185.255 81.7797C210.714 90.1134 224.813 125.081 204.787 129.384C184.761 133.688 168.935 141.416 169.65 162.935C170.365 184.453 157.182 199.06 144.71 181.029C102.517 120.032 156.025 72.2109 185.255 81.7797Z" fill="#009875"/>
</svg>
