<svg width="314" height="160" viewBox="0 0 314 160" fill="none" xmlns="http://www.w3.org/2000/svg">
<g clip-path="url(#clip0_132_427)">
<path d="M52.2874 66.5747C52.2874 50.7616 72.3919 25.0987 93.775 28.2799C115.158 31.4611 130.672 11.6671 141.844 6.23286C176.422 -10.5856 187.34 32.6134 222.827 32.3395C234.684 32.248 261.711 44.8538 261.711 66.5747H52.2874Z" fill="#E30613"/>
<path d="M261.712 68.9442H52.2877C50.976 68.9442 49.9148 67.8843 49.9148 66.5741C49.9148 56.7484 56.8785 43.889 66.8501 35.3015C75.424 27.9181 85.1014 24.5966 94.1252 25.9343C108.4 28.0522 120.209 18.9718 129.701 11.6741C133.828 8.50095 137.39 5.7625 140.805 4.10056C161.36 -5.89858 174.564 4.31339 187.337 14.1921C197.441 22.0036 207.975 30.0469 222.809 29.9683C230.794 29.7 244.548 34.9147 254.037 44.3209C260.612 50.8364 264.085 58.5322 264.085 66.5731C264.085 67.8834 263.024 68.9442 261.712 68.9442ZM54.8183 64.204H259.221C258.623 58.2578 255.763 52.7097 250.693 47.6846C242.582 39.6436 230.024 34.709 222.959 34.709C222.792 34.709 222.646 34.7114 222.493 34.7114C206.112 34.7114 194.597 25.8049 184.431 17.9398C171.746 8.12837 160.797 -0.35009 142.881 8.36444C139.901 9.81354 136.516 12.4174 132.594 15.4308C122.387 23.2773 109.665 33.0262 93.4247 30.6238C85.7938 29.4805 77.4562 32.4223 69.9477 38.8937C61.8949 45.8259 55.8495 56.0772 54.8183 64.204Z" fill="#E30613"/>
<path d="M302.272 160H96.9196V152.889H302.272C304.499 152.889 306.381 151.337 306.381 149.499C306.381 147.823 304.772 146.358 302.719 146.163C301.285 146.029 300.071 145.039 299.651 143.662L281.277 83.4501C278.883 75.6059 270.837 70.1294 261.711 70.1294H52.2877C43.1599 70.1294 35.1137 75.6059 32.7204 83.4501L14.3462 143.662C13.9266 145.039 12.7145 146.029 11.2779 146.163C9.22486 146.358 7.61885 147.823 7.61885 149.499C7.61885 151.337 9.5006 152.889 11.7274 152.889H56.3407V160H11.7274C5.5354 160 0.5 155.289 0.5 149.499C0.5 144.904 3.65412 140.974 8.15181 139.576L25.9119 81.3758C29.2094 70.5665 40.0547 63.0186 52.2877 63.0186H261.712C273.943 63.0186 284.788 70.5665 288.085 81.3758L305.845 139.576C310.345 140.974 313.5 144.904 313.5 149.499C313.5 155.29 308.464 160 302.272 160Z" fill="#004339"/>
</g>
<defs>
<clipPath id="clip0_132_427">
<rect width="313" height="160" fill="white" transform="translate(0.5)"/>
</clipPath>
</defs>
</svg>
