<svg width="249" height="74" viewBox="0 0 249 74" fill="none" xmlns="http://www.w3.org/2000/svg">
<path d="M36.6247 73.129C16.4298 73.129 0 56.7253 0 36.5623C0 16.3993 16.4298 0 36.6247 0C56.8196 0 73.2487 16.404 73.2487 36.567C73.2487 44.8474 70.5453 52.6569 65.4308 59.1516C65.0128 59.6815 64.2515 59.791 63.7009 59.3993C60.9904 57.47 57.5926 51.1216 56.1747 48.0341C52.2579 39.5062 50.652 35.2628 50.4313 34.6691C50.3657 34.5152 50.3298 34.3469 50.3298 34.1728V34.1683C50.3298 33.8165 50.4749 33.4939 50.7131 33.2626C51.3774 32.4968 52.6538 30.051 51.4309 23.1632C50.2075 16.2463 47.5055 12.6809 43.1712 12.2627C33.5879 11.3369 30.2191 13.8662 26.8099 17.27C23.472 20.6027 20.0165 21.6425 17.4933 22.4017C16.3154 22.7562 15.2981 23.0623 14.8257 23.4684C14.3008 23.9207 13.4803 26.176 13.7877 28.8708C14.0223 30.9285 14.9603 33.7281 18.0974 35.3803C20.7111 36.7579 25.9405 36.4726 27.7355 36.2459C28.3193 36.1717 28.8764 36.5096 29.0807 37.0602C29.1879 37.3483 29.5135 38.2249 27.8555 48.693C27.4111 51.5026 27.216 53.6095 27.1461 55.1456C30.6362 50.2773 37.4018 41.7768 42.0911 41.773H42.0921C42.4273 41.773 42.7491 41.9061 42.9865 42.1427C43.2242 42.3797 43.3577 42.7012 43.3577 43.0366V44.9516C45.2889 45.2078 47.8597 46.3372 48.9118 49.4882C49.5828 51.5001 50.1738 52.1229 50.6489 52.6235C50.9298 52.9194 51.2201 53.2254 51.4421 53.6856C51.9203 54.6755 51.7041 56.4345 50.9284 57.8682C49.9805 59.6196 48.3033 60.7355 46.2058 61.0107C42.5383 61.4903 42.6444 62.7136 42.9964 66.7674C43.1168 68.1522 43.253 69.7214 43.2143 71.4934C43.2013 72.1077 42.7469 72.6238 42.1384 72.7153C40.3186 72.99 38.4633 73.129 36.6247 73.129ZM36.6247 2.52725C17.8255 2.52725 2.53122 17.7953 2.53122 36.5623C2.53122 55.3293 17.8255 70.6018 36.6247 70.6018C37.9766 70.6018 39.3379 70.521 40.6849 70.3613C40.662 69.1416 40.5635 68.0108 40.4746 66.9859C40.1317 63.0326 39.8072 59.2987 45.8763 58.505C47.0556 58.3502 47.9487 57.8274 48.5302 56.9514C49.1648 55.9959 49.1945 55.0021 49.1451 54.7511C49.0898 54.6568 48.9828 54.5424 48.8111 54.3616C48.2327 53.7519 47.3586 52.8305 46.5105 50.2866C45.4997 47.2593 42.5334 47.4038 42.1999 47.4293C41.8494 47.4587 41.4966 47.3371 41.2373 47.0979C40.9784 46.8588 40.8265 46.5226 40.8265 46.1704V44.5985C36.9182 46.248 30.556 54.3649 27.0967 59.6872C26.8254 60.1046 26.3338 60.3236 25.8425 60.2482C25.3504 60.1728 24.9481 59.816 24.8154 59.3368C24.7367 59.0536 24.0837 56.3366 25.3553 48.2983C26.2117 42.8913 26.5104 40.1976 26.6095 38.8846C24.2978 39.0399 19.7527 39.1108 16.9159 37.6152C13.7062 35.9248 11.702 32.9208 11.2728 29.1566C10.9197 26.0604 11.7366 22.792 13.173 21.5542C14.0536 20.7972 15.3091 20.4194 16.7631 19.9819C19.1552 19.2621 22.1322 18.3665 25.0203 15.4829C28.7744 11.7345 32.7474 8.71629 43.4148 9.74704C48.9595 10.2822 52.4952 14.6478 53.9235 22.7227C54.8776 28.0979 54.568 32.1001 53.0327 34.3852C53.6184 35.8912 55.2817 40.0267 58.4758 46.9806C60.0637 50.4388 62.4686 54.546 64.2623 56.5038C68.4901 50.6829 70.7175 43.8193 70.7175 36.5669C70.7175 17.7975 55.4237 2.52725 36.6247 2.52725Z" fill="#004339"/>
<path d="M49.2438 36.4798C48.6179 36.4798 47.9597 36.3557 47.2924 36.1076C44.2181 34.9496 41.3418 30.8923 41.2129 25.654L43.2839 25.5942C43.3805 29.5781 45.8519 32.8681 48.1852 33.7458C49.2161 34.1317 50.0445 33.9893 50.6612 33.323L52.5205 35.0369C51.6369 35.9927 50.4956 36.489 49.2392 36.489L49.2438 36.4798Z" fill="#004339"/>
<path d="M121.159 25.3253V29.6124H120.956C119.014 27.3884 116.101 26.1753 112.617 26.1753C106.385 26.1753 102.174 30.4211 102.174 36.5646C102.174 42.7081 106.385 46.9539 112.617 46.9539C116.059 46.9539 118.973 45.7822 120.956 43.5168H121.159V47.804C119.014 49.5041 116.138 50.3909 112.456 50.3909C103.997 50.3909 98.2488 44.6518 98.2488 36.5646C98.2488 28.4774 103.997 22.7383 112.456 22.7383C116.262 22.7383 119.014 23.5884 121.159 25.3253Z" fill="#004339"/>
<path d="M141.639 49.9867L141.519 46.9954H141.436C140.019 49.0999 137.427 50.3911 134.109 50.3911C128.605 50.3911 124.638 46.2693 124.638 40.5256C124.638 34.7819 128.605 30.6602 134.109 30.6602C137.427 30.6602 140.019 31.9559 141.436 34.0972H141.519L141.639 31.0645H144.552V49.9867H141.639ZM141.234 40.5301C141.234 36.5279 138.523 33.7388 134.675 33.7388C130.828 33.7388 128.117 36.5279 128.117 40.5301C128.117 44.5324 130.786 47.3216 134.675 47.3216C138.564 47.3216 141.234 44.5324 141.234 40.5301Z" fill="#004339"/>
<path d="M161.838 31.3908V34.8278H161.676C160.866 34.2626 159.854 33.9364 158.722 33.9364C155.077 33.9364 153.337 36.4453 153.337 41.3757V49.9867H149.895V31.0645H152.808L152.891 34.0972H152.974C154.106 31.8319 156.089 30.6602 158.966 30.6602C160.222 30.6602 161.193 30.9818 161.838 31.3862V31.3908Z" fill="#004339"/>
<path d="M182.64 38.9909V49.9867H179.197V39.3952C179.197 35.8387 177.255 33.7342 174.056 33.7342C170.536 33.7342 168.428 36.1604 168.428 40.1626V49.9867H164.985V31.0645H167.899L167.982 34.0559H168.064C169.358 31.9146 171.668 30.6602 174.866 30.6602C179.685 30.6602 182.64 33.8123 182.64 38.9863V38.9909Z" fill="#004339"/>
<path d="M191.462 25.1232C191.462 26.4558 190.532 27.3886 189.193 27.3886C187.854 27.3886 186.929 26.4604 186.929 25.1232C186.929 23.7861 187.858 22.8579 189.193 22.8579C190.528 22.8579 191.462 23.7861 191.462 25.1232ZM187.495 31.0692H190.937V49.9913H187.495V31.0692Z" fill="#004339"/>
<path d="M211.417 32.5211V36.2798H211.256C209.797 34.5429 207.938 33.7342 205.549 33.7342C201.219 33.7342 198.508 36.482 198.508 40.5256C198.508 44.5692 201.219 47.317 205.549 47.317C207.979 47.317 209.88 46.4669 211.256 44.7714H211.417V48.5714C209.958 49.7845 207.897 50.3911 205.223 50.3911C199.07 50.3911 195.024 46.2693 195.024 40.5256C195.024 34.7819 199.074 30.6602 205.223 30.6602C207.855 30.6602 209.958 31.2667 211.417 32.5211Z" fill="#004339"/>
<path d="M227.93 31.3908V34.8278H227.769C226.959 34.2626 225.946 33.9364 224.814 33.9364C221.169 33.9364 219.43 36.4453 219.43 41.3757V49.9867H215.987V31.0645H218.9L218.983 34.0972H219.066C220.198 31.8319 222.182 30.6602 225.058 30.6602C226.315 30.6602 227.286 30.9818 227.93 31.3862V31.3908Z" fill="#004339"/>
<path d="M245.335 49.9864L245.253 46.9951H245.17C243.877 49.1364 241.566 50.3908 238.368 50.3908C233.549 50.3908 230.595 47.28 230.595 42.0647V31.0688H234.037V41.7017C234.037 45.2582 235.979 47.3213 239.178 47.3213C242.698 47.3213 244.806 44.8952 244.806 40.8929V31.0688H248.249V49.991H245.335V49.9864Z" fill="#004339"/>
</svg>
