<svg width="239" height="233" viewBox="0 0 239 233" fill="none" xmlns="http://www.w3.org/2000/svg">
<g clip-path="url(#clip0_2101_1110)">
<path d="M89.4037 106.743L151.039 52.2711C151.039 52.2711 136.31 9.06809 164.84 3.55719C193.371 -1.95371 194.072 42.6887 194.072 42.6887C194.072 42.6887 235.91 40.0155 235.91 62.9844C235.91 96.5228 193.248 84.2261 193.248 84.2261L88.9917 181.839C88.9917 181.839 103.185 218.153 78.9183 227.838C52.5093 238.387 34.9375 205.959 42.2917 186.671C42.2917 186.671 0.865316 193.56 3.1725 160.494C5.47969 127.429 47.8125 143.489 47.8125 143.489L71.008 122.987" stroke="#009875" stroke-width="5" stroke-linejoin="round"/>
</g>
<defs>
<clipPath id="clip0_2101_1110">
<rect width="239" height="233" fill="white"/>
</clipPath>
</defs>
</svg>
