<svg width="320" height="274" viewBox="0 0 320 274" fill="none" xmlns="http://www.w3.org/2000/svg">
<g clip-path="url(#clip0_2101_1113)">
<path d="M179.908 66.8407L227.592 31.0779C246.406 16.9672 273.506 21.3126 288.108 40.7813C302.709 60.2501 299.293 87.4826 280.478 101.593L91.6687 243.199C72.8543 257.31 45.7545 252.965 31.153 233.496C16.5516 214.027 19.9682 186.795 38.7826 172.684L156.031 84.7484" stroke="#009875" stroke-width="5" stroke-linejoin="round"/>
<path d="M203.733 132.33L141.639 178.588C130.087 187.564 126.482 186.188 121.507 179.554L109.053 162.949C105.178 156.14 105.335 147.809 114.339 141.056L173.188 99.1573C179.617 94.3355 189.964 84.3372 198.57 95.8118L211.024 112.416C215.877 118.888 210.144 127.521 203.715 132.343L203.733 132.33Z" fill="#E30613" stroke="#E30613" stroke-width="3" stroke-linejoin="round"/>
<path d="M77.4325 201.634C80.8723 199.054 76.7271 193.527 73.2873 196.107C69.8476 198.687 73.9928 204.214 77.4325 201.634Z" fill="#009875"/>
<path d="M54.0942 203.036C57.5339 200.457 53.3887 194.93 49.9489 197.509C46.5092 200.089 50.6544 205.616 54.0942 203.036Z" fill="#009875"/>
<path d="M66.5463 229.627C69.986 227.048 65.8408 221.521 62.4011 224.1C58.9614 226.68 63.1066 232.207 66.5463 229.627Z" fill="#009875"/>
<path d="M83.1869 179.145C86.6267 176.565 82.4815 171.038 79.0417 173.618C75.602 176.198 79.7472 181.725 83.1869 179.145Z" fill="#009875"/>
<path d="M105.71 207.688C109.15 205.108 105.004 199.581 101.565 202.161C98.1249 204.741 102.27 210.268 105.71 207.688Z" fill="#009875"/>
<path d="M220.859 74.4222C224.299 71.8424 220.154 66.3155 216.714 68.8952C213.274 71.475 217.42 77.002 220.859 74.4222Z" fill="#009875"/>
<path d="M233.847 104.94C237.287 102.36 233.142 96.833 229.702 99.4128C226.262 101.993 230.407 107.52 233.847 104.94Z" fill="#009875"/>
<path d="M249.655 55.5384C253.095 52.9586 248.95 47.4317 245.51 50.0114C242.07 52.5912 246.215 58.1182 249.655 55.5384Z" fill="#009875"/>
<path d="M248.437 82.5384C251.877 79.9586 247.732 74.4317 244.292 77.0114C240.852 79.5912 244.998 85.1182 248.437 82.5384Z" fill="#009875"/>
<path d="M269.871 74.3636C273.311 71.7838 269.166 66.2569 265.726 68.8366C262.287 71.4164 266.432 76.9434 269.871 74.3636Z" fill="#009875"/>
</g>
<defs>
<clipPath id="clip0_2101_1113">
<rect width="327.762" height="94.9417" fill="white" transform="translate(0.0429688 197.49) rotate(-36.8697)"/>
</clipPath>
</defs>
</svg>
