<svg width="137" height="118" viewBox="0 0 137 118" fill="none" xmlns="http://www.w3.org/2000/svg">
<g clip-path="url(#clip0_129_232)">
<path d="M86.1795 118C75.9494 118.001 67.2576 112.556 57.5611 106.483C51.2397 102.523 44.0738 98.0345 35.55 94.4174C14.5939 85.522 1.69052 72.6825 0.14873 59.1907C-0.770214 51.1465 2.60034 43.6831 9.39598 38.7111C18.2718 32.2197 29.16 33.5711 39.693 34.8797C48.4852 35.9718 57.5759 37.1019 65.7305 33.8419L65.966 33.7497C74.4167 30.7535 80.5403 23.8877 86.4638 17.2491C89.2925 14.0779 92.2184 10.7981 95.3167 8.03455L97.6435 10.6839C94.6948 13.3137 91.9644 16.3746 89.0742 19.615C82.8569 26.5843 76.4269 33.791 67.3077 37.0257L66.4641 35.4521L67.0286 37.1292C58.0351 40.7244 48.4908 39.5368 39.263 38.3907C28.9541 37.1097 19.2155 35.8989 11.4574 41.5747C5.71786 45.7748 2.86741 52.0472 3.63655 58.7861C5.02854 70.9725 17.1571 82.7709 36.9121 91.1548C45.6919 94.8814 52.9823 99.4477 59.4147 103.477C72.4393 111.634 81.8476 117.533 95.3338 112.853C108.466 107.498 111.73 96.8247 116.247 82.0518C118.476 74.7576 121.005 66.49 125.202 57.8723C134.65 38.4792 136.12 21.5556 129.236 11.4394C125.431 5.84662 119.2 3.00118 112.129 3.62566L111.82 0.100772C120.175 -0.643322 127.588 2.7596 132.132 9.43851C139.753 20.6379 138.375 38.8595 128.354 59.4322C124.278 67.8001 121.793 75.9259 119.601 83.0946C115.163 97.6115 111.33 110.148 96.5636 116.166C92.8892 117.441 89.455 118 86.1795 118Z" fill="#F8F9E9"/>
<path d="M46.346 84.8802C66.6417 93.6885 73.6998 108.515 90.5302 102.674C107.031 95.9468 102.248 78.9899 112.842 59.4419C124.168 38.5446 127.598 21.4416 114.923 15.0384C101.626 8.32118 86.8798 36.1328 70.3613 42.8685C50.3393 51.0326 24.2345 38.8106 16.4303 51.7234C8.14629 65.43 21.7582 74.2092 46.346 84.8802ZM39.1209 56.7082C42.4911 55.3339 46.3288 56.9753 47.6925 60.3743C49.0561 63.7732 47.4295 67.6426 44.059 69.0169C40.6888 70.3911 36.8513 68.7498 35.4877 65.3508C34.124 61.9518 35.7506 58.0825 39.1209 56.7082Z" fill="#E30613"/>
</g>
<defs>
<clipPath id="clip0_129_232">
<rect width="137" height="118" fill="white"/>
</clipPath>
</defs>
</svg>
